<svg xmlns="http://www.w3.org/2000/svg" viewBox="0 0 1047.24 285.05"><defs><style>.cls-1{fill:#f1f1f1;}.cls-2{fill:none;}.cls-3{fill:#1f1f1f;}</style></defs><title>NewLogoWhite</title><g id="Layer_2" data-name="Layer 2"><g id="Layer_1-2" data-name="Layer 1"><path class="cls-1" d="M211.23,202.79V168.07a122.51,122.51,0,0,1-5.77,27.34q-6.72,19.47-19.13,32.06A73.26,73.26,0,0,1,161.2,244v1.77H312.34l-50.47-42.85Z"/><path class="cls-1" d="M143,6v142.7a138.4,138.4,0,0,1-.95,16.8q-2.21,18.15-9.63,28.52-10.57,14.79-35.75,14.78T60.77,194.06Q50,179.3,50,148.74V6H0V147.73q0,27.2,6.38,47t18.8,32.4a75.89,75.89,0,0,0,30.39,18.64q18,6,40.79,6,22.49,0,40.46-5.87c1.8-.59,3.54-1.25,5.26-1.94a73.13,73.13,0,0,0,25.12-16.53q12.42-12.58,19.14-32.06a122.51,122.51,0,0,0,5.77-27.34V6Z"/><path class="cls-1" d="M464.31,238.72a96.27,96.27,0,0,1-26.69-20.82Q422.85,201.46,415,178.28t-7.89-52.37q0-29.22,7.89-52.38a111.44,111.44,0,0,1,22.83-39.62c.54-.59,1.1-1.15,1.65-1.72-.74-.84-1.51-1.66-2.31-2.48q-10.41-10.58-28.7-17.12a92.66,92.66,0,0,0-10-2.92h0Q382.92,6.06,361.93,6H211.33V49.36h64.54V191.77l50.47,44v-80h47l40.29,90h54.06Zm-61.09-145A23.65,23.65,0,0,1,397,104.59a30.31,30.31,0,0,1-12.25,7q-7.72,2.52-19.48,2.52H326.34V49.36h0v-2h34.58a83.06,83.06,0,0,1,19.77,2h0c.64.16,1.28.32,1.88.5q8.56,2.52,13.43,7a25.34,25.34,0,0,1,6.89,10.41,37.59,37.59,0,0,1,2,12.25A55.24,55.24,0,0,1,403.22,93.67Z"/><path class="cls-1" d="M588.69,8.73Q567.54,0,540.68,0,514.16,0,493,8.73a99.46,99.46,0,0,0-34.44,23.46c-.54.57-1.11,1.13-1.65,1.72Q442,50.37,434.08,73.53t-7.89,52.38q0,29.21,7.89,52.37t22.66,39.62a96.17,96.17,0,0,0,26.7,20.82c3,1.58,6,3.05,9.23,4.36q21.15,8.73,48,8.73,27.2,0,48.35-8.73a96.39,96.39,0,0,0,32.51-21.73V30.82A96.52,96.52,0,0,0,588.69,8.73Zm-1.34,178.62q-15.45,21.5-47,21.49t-47-21.49q-15.45-21.48-15.44-61.44,0-39.61,15.44-61.28t47-21.65q31.54,0,47,21.65t15.44,61.28Q602.79,165.87,587.35,187.35Z"/><path class="cls-1" d="M810.2,61.9l-10.73,0,10.71.14Z"/><path class="cls-1" d="M1039.51,184.49q7.73-23,7.73-52.54,0-29.2-7.73-52.38T1017.19,40a96.35,96.35,0,0,0-35.76-25.18Q960.28,6,933.42,6l-1.75,0q-25.47.29-45.93,8.71a101.67,101.67,0,0,0-22.69,12.94q-3,2.29-5.88,4.81c-1.41,1.25-2.78,2.55-4.12,3.88-1.16,1.15-2.3,2.34-3.4,3.55a107.46,107.46,0,0,0-18.48,28.54q-2.4,5.33-4.35,11.08a140,140,0,0,0-5.47,22.08,182.2,182.2,0,0,0-2.42,30.3q0,29.2,7.89,52.38t22.66,39.61a94.19,94.19,0,0,0,7.69,7.66c1.59,1.41,3.23,2.75,4.9,4.05a100.43,100.43,0,0,0,23.34,13.48q21.15,8.72,48,8.72,28.88,0,51.7-10.4l30.56,37.6,30.21-25.52-29.21-35.92Q1031.8,207.5,1039.51,184.49Zm-54,.51-27.2-34.25-30.21,25.52,29.21,35.92a53.06,53.06,0,0,1-11.42,2.86,90.15,90.15,0,0,1-12.42.84q-31.56,0-47.18-22t-15.61-62q0-39.61,15.61-61.28T933.42,49Q965,49,980.26,70.67T995.53,132Q995.53,165.87,985.46,185Z"/><path class="cls-2" d="M810.18,62l0-.09-10.73,0Z"/><path class="cls-1" d="M744.39,6.14l1,55.44,39,.21V163.18L685.65,6h-45V30.82c.75.78,1.5,1.57,2.24,2.37q-1.11-1.2-2.25-2.37V221.35c1.11-1.12,2.2-2.26,3.25-3.45q14.61-16.44,22.16-39.62t7.55-52.37q0-29.22-7.72-52.38a113.37,113.37,0,0,0-20.71-37.69A113.37,113.37,0,0,1,665.9,73.53q7.73,23.16,7.72,52.38t-7.55,52.37q-7.56,23.17-22.16,39.62c-1,1.19-2.14,2.33-3.24,3.45v24.42h48.68V90l99,155.79h54.66a60.25,60.25,0,0,0-1-10.12c-1.67-1.3-3.31-2.64-4.9-4.05a94.19,94.19,0,0,1-7.69-7.66q-14.78-16.44-22.66-39.61T798.93,132a182.2,182.2,0,0,1,2.42-30.3,140,140,0,0,1,5.47-22.08q1.95-5.75,4.35-11.08A107.46,107.46,0,0,1,829.65,40c1.1-1.21,2.24-2.4,3.4-3.55,1.34-1.33,2.71-2.63,4.12-3.88Q840,30,843.05,27.71a101.67,101.67,0,0,1,22.69-12.94c2.48-1,5-1.93,7.61-2.77V6ZM810.18,62l-10.71-.14,10.73,0Z"/><path class="cls-3" d="M884.64,8.85A7.93,7.93,0,0,1,885.19,6H873.35v6a115.43,115.43,0,0,1,11.29-3.06Z"/></g></g></svg>